<svg width="656" height="606" viewBox="0 0 656 606" fill="none" xmlns="http://www.w3.org/2000/svg">
<g opacity="0.3" clip-path="url(#clip0_7_433)">
<path d="M650.082 357.498L212.134 495.799C210.784 496.223 209.32 496.095 208.065 495.442C206.809 494.789 205.864 493.665 205.436 492.316L76.9999 85.6058C76.5755 84.2558 76.7038 82.7926 77.3567 81.537C78.0096 80.2815 79.1338 79.3361 80.4827 78.9082L518.431 -59.3927C519.781 -59.8171 521.245 -59.6888 522.5 -59.0359C523.756 -58.383 524.701 -57.2588 525.129 -55.9099L653.565 350.799C653.989 352.149 653.861 353.613 653.208 354.868C652.555 356.124 651.431 357.069 650.082 357.497L650.082 357.498ZM81.1244 80.9402C80.3162 81.1974 79.6428 81.7642 79.2515 82.5167C78.8602 83.2692 78.7829 84.146 79.0366 84.9553L207.474 491.671C207.732 492.48 208.298 493.153 209.051 493.544C209.803 493.936 210.68 494.013 211.49 493.759L649.438 355.458C650.247 355.201 650.92 354.635 651.311 353.882C651.703 353.13 651.78 352.253 651.526 351.443L523.09 -55.2661C522.833 -56.0743 522.266 -56.7477 521.514 -57.139C520.761 -57.5303 519.884 -57.6076 519.075 -57.3539L81.1244 80.9402Z" fill="#E6E6E6"/>
<path d="M320.796 119.244C319.879 119.533 319.115 120.175 318.672 121.028C318.228 121.88 318.142 122.874 318.431 123.791C318.721 124.707 319.363 125.471 320.215 125.915C321.068 126.358 322.062 126.445 322.978 126.155L512.604 66.2729C513.52 65.9835 514.284 65.3418 514.728 64.4891C515.171 63.6363 515.258 62.6424 514.968 61.7258C514.679 60.8093 514.037 60.0453 513.185 59.6019C512.332 59.1585 511.338 59.0719 510.421 59.3614L320.796 119.244Z" fill="#E6E6E6"/>
<path d="M327.344 139.98C326.428 140.269 325.664 140.911 325.221 141.764C324.777 142.617 324.691 143.611 324.98 144.527C325.269 145.444 325.911 146.208 326.764 146.651C327.617 147.094 328.611 147.181 329.527 146.892L426.335 116.32C427.251 116.031 428.015 115.389 428.459 114.537C428.902 113.684 428.989 112.69 428.699 111.773C428.41 110.857 427.768 110.093 426.915 109.649C426.063 109.206 425.069 109.119 424.152 109.409L327.344 139.98Z" fill="#E6E6E6"/>
<path d="M193.301 292.687C192.385 292.977 191.621 293.619 191.177 294.471C190.734 295.324 190.647 296.318 190.937 297.235C191.226 298.151 191.868 298.915 192.721 299.359C193.573 299.802 194.567 299.889 195.484 299.599L551.033 187.319C551.949 187.03 552.713 186.388 553.157 185.536C553.6 184.683 553.686 183.689 553.397 182.772C553.108 181.856 552.466 181.092 551.613 180.648C550.761 180.205 549.767 180.118 548.85 180.408L193.301 292.687Z" fill="#E6E6E6"/>
<path d="M199.85 313.424C198.933 313.713 198.169 314.355 197.726 315.208C197.282 316.06 197.196 317.054 197.485 317.971C197.775 318.887 198.416 319.651 199.269 320.095C200.122 320.538 201.116 320.625 202.032 320.335L464.763 237.367C465.68 237.078 466.444 236.436 466.887 235.583C467.331 234.73 467.417 233.736 467.128 232.82C466.838 231.903 466.196 231.139 465.344 230.696C464.491 230.252 463.497 230.166 462.58 230.455L199.85 313.424Z" fill="#E6E6E6"/>
<path d="M206.25 333.691C205.333 333.981 204.569 334.622 204.126 335.475C203.683 336.328 203.596 337.322 203.885 338.238C204.175 339.155 204.817 339.919 205.669 340.362C206.522 340.806 207.516 340.892 208.433 340.603L563.981 228.323C564.898 228.034 565.662 227.392 566.105 226.54C566.549 225.687 566.635 224.693 566.346 223.776C566.056 222.86 565.415 222.096 564.562 221.652C563.709 221.209 562.715 221.122 561.799 221.412L206.25 333.691Z" fill="#E6E6E6"/>
<path d="M212.799 354.428C211.882 354.718 211.118 355.359 210.675 356.212C210.231 357.065 210.145 358.059 210.434 358.975C210.724 359.892 211.365 360.656 212.218 361.099C213.071 361.543 214.065 361.629 214.981 361.34L477.712 278.371C478.629 278.082 479.393 277.44 479.836 276.588C480.279 275.735 480.366 274.741 480.077 273.824C479.787 272.908 479.145 272.144 478.293 271.7C477.44 271.257 476.446 271.17 475.529 271.46L212.799 354.428Z" fill="#E6E6E6"/>
<path d="M295.866 207.187L20.9784 293.994C19.6284 294.419 18.1651 294.291 16.9094 293.638C15.6538 292.985 14.7085 291.861 14.2808 290.512L-23.8148 169.877C-24.2395 168.527 -24.1113 167.063 -23.4583 165.808C-22.8054 164.552 -21.6811 163.607 -20.332 163.179L254.555 76.3719C255.905 75.9472 257.369 76.0754 258.624 76.7283C259.88 77.3813 260.825 78.5056 261.253 79.8546L299.348 200.489C299.773 201.839 299.645 203.303 298.992 204.558C298.339 205.814 297.215 206.759 295.866 207.187Z" fill="#F5DFBB"/>
<path d="M591.627 323.523L487.431 356.428C486.081 356.852 484.618 356.724 483.362 356.071C482.106 355.418 481.161 354.294 480.733 352.945L475.461 336.25C475.037 334.9 475.165 333.437 475.818 332.181C476.471 330.926 477.595 329.98 478.944 329.553L583.14 296.648C584.49 296.224 585.954 296.352 587.209 297.005C588.465 297.658 589.41 298.782 589.838 300.131L595.11 316.826C595.534 318.176 595.406 319.639 594.753 320.895C594.1 322.15 592.976 323.096 591.627 323.523Z" fill="#F5DFBB"/>
<path d="M53.9308 531.2L67.5877 526.886L57.4501 472.156L37.2936 478.522L53.9308 531.2Z" fill="#FFB8B8"/>
<path d="M49.0389 527.84L75.9348 519.346L75.9359 519.345C80.4818 517.91 85.4116 518.339 89.641 520.539C93.8705 522.738 97.0532 526.527 98.489 531.073L98.6649 531.63L54.6285 545.538L49.0389 527.84Z" fill="#2F2E41"/>
<path d="M48.4873 516.737L45.1738 510.231C43.8681 510.191 42.6157 509.705 41.6254 508.853C39.7829 507.299 38.724 504.628 38.4771 500.912L4.68751 426.002L-59.184 391.28L-66.5391 475.467L-60.1541 538.233L-57.4664 546.744L-80.8704 557.579L-82.2937 549.207C-83.3531 549.102 -84.3494 548.654 -85.1319 547.932C-87.2701 546.042 -88.3926 542.421 -88.4683 537.17L-88.4717 536.942L-88.7775 536.251C-88.992 535.766 -103.82 487.534 -97.0446 459.177L-105.576 382.274C-106.27 381.373 -109.981 376.018 -109.779 364.926C-109.58 353.979 -105.318 335.1 -86.1419 307.322L-86.0759 307.227L-85.9749 307.17C-85.7118 307.023 -59.4418 292.599 -38.9592 306.978L-38.8207 307.075L-38.7697 307.237C-38.3996 308.409 -29.8121 335.69 -30.0575 342.423L24.3146 394.809C24.3146 394.809 33.4152 400.353 37.0452 419.286L62.2565 479.77C63.2756 480.783 72.6375 490.398 67.727 496.925L71.3452 504.425L48.4873 516.737Z" fill="#2F2E41"/>
<path d="M10.5956 276.923C10.1727 277.28 9.77855 277.67 9.41688 278.088L-39.7937 271.998L-44.5075 260.912L-62.1676 265.84L-55.7298 286.276C-55.2097 287.927 -54.1681 289.364 -52.7614 290.373C-51.3547 291.382 -49.6588 291.907 -47.9282 291.869L8.47202 290.654C9.62195 292.448 11.291 293.85 13.2571 294.673C15.2232 295.496 17.3932 295.701 19.4785 295.26C21.5638 294.82 23.4656 293.754 24.9309 292.207C26.3961 290.659 27.3554 288.702 27.6812 286.595C28.007 284.489 27.6838 282.334 26.7545 280.415C25.8253 278.497 24.3342 276.908 22.4794 275.858C20.6246 274.808 18.4942 274.347 16.3713 274.538C14.2485 274.728 12.2339 275.56 10.5956 276.923L10.5956 276.923Z" fill="#FFB8B8"/>
<path d="M130.273 522.837L-130.054 605.047C-130.307 605.127 -130.582 605.103 -130.817 604.981C-131.052 604.858 -131.229 604.647 -131.309 604.394C-131.389 604.142 -131.365 603.867 -131.243 603.632C-131.12 603.397 -130.91 603.22 -130.657 603.14L129.671 520.93C129.924 520.85 130.198 520.874 130.434 520.997C130.669 521.119 130.846 521.33 130.926 521.583C131.006 521.836 130.982 522.11 130.86 522.345C130.737 522.58 130.526 522.758 130.273 522.837Z" fill="#CCCCCC"/>
<path d="M118.138 165.98C116.946 166.361 116.469 168.216 117.075 170.124C117.678 172.027 119.129 173.264 120.321 172.892L222.23 140.71C223.422 140.329 223.899 138.474 223.294 136.566C222.69 134.664 221.239 133.426 220.047 133.798L118.138 165.98Z" fill="white"/>
<path d="M124.462 186.006C123.27 186.387 122.793 188.242 123.398 190.15C124.002 192.052 125.453 193.289 126.645 192.917L228.554 160.735C229.746 160.354 230.222 158.499 229.617 156.591C229.014 154.689 227.563 153.452 226.371 153.824L124.462 186.006Z" fill="white"/>
<path d="M130.71 205.789C129.517 206.17 129.041 208.025 129.646 209.933C130.249 211.835 131.701 213.073 132.892 212.701L176.744 198.853C177.936 198.472 178.413 196.616 177.807 194.709C177.204 192.806 175.753 191.569 174.561 191.941L130.71 205.789Z" fill="white"/>
<path d="M82.4218 233.072C97.6946 228.249 106.166 211.958 101.343 196.686C96.5197 181.413 80.2288 172.942 64.956 177.765C49.6832 182.588 41.212 198.879 46.035 214.151C50.858 229.424 67.149 237.895 82.4218 233.072Z" fill="white"/>
</g>
<defs>
<clipPath id="clip0_7_433">
<rect width="824.808" height="438.316" fill="white" transform="translate(-263 187.377) rotate(-17.5257)"/>
</clipPath>
</defs>
</svg>
