<svg width="272" height="194" viewBox="0 0 272 194" fill="none" xmlns="http://www.w3.org/2000/svg">
<path d="M187.582 127.366H106.144L88.8983 57.6897H74.1806V54.5633H91.8634L109.109 124.239H187.582V127.366Z" fill="#3F3D56"/>
<path d="M118.078 140.095C122.407 140.095 125.917 137.095 125.917 133.395C125.917 129.695 122.407 126.696 118.078 126.696C113.749 126.696 110.239 129.695 110.239 133.395C110.239 137.095 113.749 140.095 118.078 140.095Z" fill="#3F3D56"/>
<path d="M176.608 140.095C180.937 140.095 184.447 137.095 184.447 133.395C184.447 129.695 180.937 126.696 176.608 126.696C172.278 126.696 168.769 129.695 168.769 133.395C168.769 137.095 172.278 140.095 176.608 140.095Z" fill="#3F3D56"/>
<path d="M186.097 125.893H106.862L92.8821 66.8458H199.217C199.759 66.8459 200.295 66.9464 200.788 67.1404C201.281 67.3345 201.719 67.6174 202.072 67.9698C202.424 68.3223 202.683 68.7358 202.831 69.182C202.979 69.6282 203.012 70.0965 202.928 70.5546L189.808 123.181C189.672 123.938 189.223 124.629 188.542 125.127C187.861 125.624 186.993 125.897 186.097 125.893V125.893ZM107.723 125H186.097C186.744 125.002 187.37 124.806 187.862 124.447C188.353 124.087 188.677 123.589 188.775 123.043L201.895 70.4159C201.956 70.0853 201.932 69.7473 201.826 69.4252C201.719 69.1031 201.532 68.8046 201.277 68.5502C201.023 68.2958 200.707 68.0916 200.351 67.9516C199.995 67.8116 199.608 67.7391 199.217 67.7391H94.1508L107.723 125Z" fill="#3F3D56"/>
<path d="M173.174 125.256L172.142 125.113L181.03 67.221L182.062 67.3639L173.174 125.256Z" fill="#3F3D56"/>
<path d="M148.919 67.2925H147.874V125.632H148.919V67.2925Z" fill="#3F3D56"/>
<path d="M98.221 82.9249L98.2184 83.8182L199.39 84.0275L199.392 83.1343L98.221 82.9249Z" fill="#3F3D56"/>
<path d="M192.253 110.519L103.372 111.039L103.379 111.932L192.26 111.413L192.253 110.519Z" fill="#3F3D56"/>
<path d="M75.7485 58.3597C78.9232 58.3597 81.4969 57.1599 81.4969 55.6798C81.4969 54.1998 78.9232 53 75.7485 53C72.5737 53 70 54.1998 70 55.6798C70 57.1599 72.5737 58.3597 75.7485 58.3597Z" fill="#3F3D56"/>
</svg>
