<svg width="711" height="517" viewBox="0 0 711 517" fill="none" xmlns="http://www.w3.org/2000/svg">
<g clip-path="url(#clip0_7_177)">
<path d="M710.992 9.69794e-09H229.89C228.057 0.00172116 226.3 0.785899 225.004 2.18038C223.709 3.57486 222.98 5.46568 222.979 7.43775V194.584H339.41C342.562 194.588 345.584 195.937 347.812 198.336C350.041 200.734 351.295 203.986 351.299 207.378V365.712H710.992C711.991 365.712 712.979 365.479 713.886 365.028C714.793 364.577 715.599 363.92 716.247 363.102C716.302 363.038 716.352 362.969 716.398 362.897C716.81 362.354 717.144 361.748 717.388 361.097C717.736 360.203 717.914 359.243 717.911 358.274V7.43775C717.909 5.46432 717.179 3.57247 715.882 2.17784C714.584 0.783217 712.826 -0.000100636 710.992 9.69794e-09Z" fill="#0E9594"/>
<path d="M715.957 30H223V32.1262H715.957V30Z" fill="#CCCCCC"/>
<path d="M233.845 22.3273C237.118 22.3273 239.772 19.4715 239.772 15.9486C239.772 12.4257 237.118 9.56982 233.845 9.56982C230.571 9.56982 227.917 12.4257 227.917 15.9486C227.917 19.4715 230.571 22.3273 233.845 22.3273Z" fill="#CCCCCC"/>
<path d="M250.886 22.3273C254.159 22.3273 256.813 19.4715 256.813 15.9486C256.813 12.4257 254.159 9.56982 250.886 9.56982C247.612 9.56982 244.958 12.4257 244.958 15.9486C244.958 19.4715 247.612 22.3273 250.886 22.3273Z" fill="#CCCCCC"/>
<path d="M267.927 22.3273C271.2 22.3273 273.854 19.4715 273.854 15.9486C273.854 12.4257 271.2 9.56982 267.927 9.56982C264.653 9.56982 262 12.4257 262 15.9486C262 19.4715 264.653 22.3273 267.927 22.3273Z" fill="#CCCCCC"/>
<path d="M587.174 76.2368H339.886C337.153 76.2368 334.532 77.405 332.6 79.4845C330.667 81.564 329.582 84.3844 329.582 87.3252C329.582 90.266 330.667 93.0864 332.6 95.1659C334.532 97.2453 337.153 98.4136 339.886 98.4136H587.174C589.906 98.4136 592.527 97.2453 594.46 95.1659C596.392 93.0864 597.477 90.266 597.477 87.3252C597.477 84.3844 596.392 81.564 594.46 79.4845C592.527 77.405 589.906 76.2368 587.174 76.2368V76.2368ZM587.174 96.7077H339.886C337.573 96.7077 335.356 95.7192 333.721 93.9596C332.086 92.2001 331.167 89.8136 331.167 87.3252C331.167 84.8368 332.086 82.4503 333.721 80.6908C335.356 78.9312 337.573 77.9427 339.886 77.9427H587.174C589.486 77.9427 591.704 78.9312 593.339 80.6908C594.974 82.4503 595.892 84.8368 595.892 87.3252C595.892 89.8136 594.974 92.2001 593.339 93.9596C591.704 95.7192 589.486 96.7077 587.174 96.7077Z" fill="#CCCCCC"/>
<path d="M662.842 164.577H415.554C412.822 164.577 410.201 165.745 408.269 167.825C406.336 169.904 405.251 172.725 405.251 175.666C405.251 178.606 406.336 181.427 408.269 183.506C410.201 185.586 412.822 186.754 415.554 186.754H662.842C665.575 186.754 668.196 185.586 670.128 183.506C672.061 181.427 673.146 178.606 673.146 175.666C673.146 172.725 672.061 169.904 670.128 167.825C668.196 165.745 665.575 164.577 662.842 164.577V164.577Z" fill="white"/>
<path d="M662.842 205.519H415.554C412.822 205.519 410.201 206.687 408.269 208.767C406.336 210.846 405.251 213.667 405.251 216.607C405.251 219.548 406.336 222.369 408.269 224.448C410.201 226.528 412.822 227.696 415.554 227.696H662.842C665.575 227.696 668.196 226.528 670.128 224.448C672.061 222.369 673.146 219.548 673.146 216.607C673.146 213.667 672.061 210.846 670.128 208.767C668.196 206.687 665.575 205.519 662.842 205.519V205.519Z" fill="white"/>
<path d="M662.842 246.46H415.554C412.822 246.46 410.201 247.629 408.269 249.708C406.336 251.788 405.251 254.608 405.251 257.549C405.251 260.49 406.336 263.31 408.269 265.39C410.201 267.469 412.822 268.637 415.554 268.637H662.842C665.575 268.637 668.196 267.469 670.128 265.39C672.061 263.31 673.146 260.49 673.146 257.549C673.146 254.608 672.061 251.788 670.128 249.708C668.196 247.629 665.575 246.46 662.842 246.46V246.46Z" fill="white"/>
<path d="M375.592 146.239H263.028C260.614 146.242 258.299 147.275 256.592 149.113C254.885 150.95 253.924 153.441 253.921 156.039V194.584H255.506V156.039C255.509 153.893 256.303 151.836 257.713 150.319C259.123 148.802 261.034 147.948 263.028 147.945H375.592C377.586 147.947 379.498 148.8 380.909 150.318C382.319 151.835 383.112 153.893 383.113 156.039V277.175C383.112 279.322 382.319 281.38 380.909 282.897C379.498 284.415 377.586 285.268 375.592 285.27H344.388V286.976H375.592C378.007 286.974 380.322 285.941 382.03 284.104C383.737 282.266 384.697 279.774 384.699 277.175V156.039C384.697 153.44 383.737 150.949 382.03 149.111C380.322 147.274 378.007 146.24 375.592 146.239V146.239Z" fill="#CCCCCC"/>
<path d="M332.499 192.878H115.329C111.757 192.883 108.333 194.413 105.807 197.131C103.281 199.849 101.86 203.534 101.855 207.378V502.5C101.86 506.344 103.281 510.029 105.807 512.747C108.333 515.465 111.757 516.994 115.329 517H332.499C336.071 516.994 339.495 515.465 342.021 512.747C344.547 510.029 345.968 506.344 345.973 502.5V207.378C345.968 203.534 344.547 199.849 342.021 197.131C339.495 194.413 336.071 192.883 332.499 192.878V192.878ZM344.388 502.5C344.384 505.892 343.13 509.144 340.901 511.542C338.672 513.941 335.651 515.29 332.499 515.294H115.329C112.177 515.29 109.155 513.941 106.927 511.542C104.698 509.144 103.444 505.892 103.44 502.5V207.378C103.444 203.986 104.698 200.734 106.927 198.336C109.155 195.937 112.177 194.588 115.329 194.584H332.499C335.651 194.588 338.672 195.937 340.901 198.336C343.13 200.734 344.384 203.986 344.388 207.378V502.5Z" fill="#3F3D56"/>
<path d="M289.699 397.16H158.129C144.689 397.09 144.633 375.059 158.13 374.983H289.699C303.13 375.051 303.202 397.084 289.699 397.16Z" fill="#0E9594"/>
<path d="M289.699 438.102H158.129C144.689 438.032 144.633 416.001 158.13 415.925H289.699C303.13 415.993 303.202 438.026 289.699 438.102Z" fill="#0E9594"/>
<path d="M289.699 479.043H158.129C144.689 478.974 144.633 456.942 158.13 456.867H289.699C303.13 456.934 303.202 478.968 289.699 479.043Z" fill="#FF5964"/>
<path d="M338.84 220.172C334.764 220.172 330.78 218.872 327.391 216.435C324.002 213.998 321.361 210.535 319.801 206.482C318.241 202.43 317.833 197.971 318.628 193.669C319.423 189.367 321.386 185.416 324.268 182.314C327.15 179.213 330.822 177.101 334.819 176.245C338.817 175.389 342.96 175.828 346.726 177.507C350.491 179.185 353.71 182.028 355.974 185.675C358.238 189.322 359.447 193.609 359.447 197.996C359.441 203.875 357.268 209.512 353.404 213.67C349.541 217.827 344.303 220.166 338.84 220.172V220.172Z" fill="#442B48"/>
<path d="M348.351 197.143H339.632V186.481C339.632 186.255 339.549 186.038 339.4 185.878C339.251 185.718 339.05 185.628 338.839 185.628C338.629 185.628 338.428 185.718 338.279 185.878C338.13 186.038 338.047 186.255 338.047 186.481V197.143H329.328C329.118 197.143 328.917 197.233 328.768 197.393C328.619 197.553 328.536 197.77 328.536 197.996C328.536 198.222 328.619 198.439 328.768 198.599C328.917 198.759 329.118 198.849 329.328 198.849H338.047V209.511C338.047 209.737 338.13 209.954 338.279 210.114C338.428 210.274 338.629 210.364 338.839 210.364C339.05 210.364 339.251 210.274 339.4 210.114C339.549 209.954 339.632 209.737 339.632 209.511V198.849H348.351C348.561 198.849 348.762 198.759 348.911 198.599C349.06 198.439 349.143 198.222 349.143 197.996C349.143 197.77 349.06 197.553 348.911 197.393C348.762 197.233 348.561 197.143 348.351 197.143Z" fill="white"/>
<path d="M287.321 348.371H160.507C157.039 348.367 153.715 346.883 151.264 344.244C148.812 341.606 147.433 338.029 147.429 334.297V257.873C147.433 254.142 148.812 250.564 151.264 247.926C153.715 245.288 157.039 243.804 160.507 243.799H287.321C290.788 243.804 294.112 245.288 296.564 247.926C299.016 250.564 300.395 254.142 300.399 257.873V334.297C300.395 338.029 299.016 341.606 296.564 344.244C294.112 346.883 290.788 348.367 287.321 348.371Z" fill="#442B48"/>
</g>
<defs>
<clipPath id="clip0_7_177">
<rect width="711" height="517" fill="white"/>
</clipPath>
</defs>
</svg>
