<svg width="80" height="80" viewBox="0 0 80 80" fill="none" xmlns="http://www.w3.org/2000/svg">
<path d="M35.1124 80C15.4914 71.4862 1.77445 54.2384 0.0426566 35.903C-0.950957 25.3832 15.63 18.1042 27.2014 22.453C38.7727 26.8018 44.0563 38.6039 42.8096 49.105C41.5628 59.6062 35.1935 69.1431 35.1124 80Z" fill="#442B48"/>
<path d="M67.0985 18.2348L67.0979 18.2344L67.1059 18.2522L67.1067 18.2529C67.1038 18.2469 67.1014 18.2408 67.0985 18.2348Z" fill="black"/>
<path d="M78.0023 15.2083C74.3063 6.83292 62.7233 5.35268 54.1919 9.66827C52.7973 10.3327 51.4549 11.0699 50.1726 11.8756C47.127 6.85037 42.423 1.95552 35.8599 0.20494C28.9071 -0.864649 21.7376 2.4039 17.0385 6.4859C12.9178 10.2425 10.9681 15.184 8.83784 19.855C6.08207 25.843 6.74571 32.3508 8.5851 38.4512C10.6328 46.0089 15.7293 52.641 21.2553 58.7665C27.6909 66.0339 34.9165 72.7832 41.9603 79.6404C35.872 71.1283 29.3228 62.831 23.8534 54.0243C20.3001 48.38 18.0466 44.1304 16.7675 36.9275C16.3927 34.7443 16.2007 32.5421 16.1929 30.3368C16.2594 27.7938 16.4205 27.811 16.4698 27.3794C17.5725 22.7147 22.0569 15.4238 23.9712 13.3989C24.527 12.8678 25.1379 12.3783 25.7967 11.9359C26.1952 11.6958 26.6148 11.4808 27.0519 11.2927C28.6303 10.6697 28.0528 10.6756 31.5254 9.87751L31.5267 9.87735C31.786 9.8681 32.026 9.86757 32.2201 9.87046C32.3054 9.91181 32.3912 9.95201 32.4745 9.99587C35.7412 12.549 34.7741 11.8788 36.3074 13.4806C36.4374 13.633 36.5673 13.7855 36.6971 13.938C37.6099 15.0447 38.4221 16.2065 39.1267 17.4136C39.7827 18.2249 41.7844 25.6838 49.9609 24.0786C51.3489 23.6917 52.6265 23.0721 53.7146 22.2582C54.4253 21.8084 55.6526 21.0229 56.3712 20.5495C57.302 19.978 59.2393 18.801 59.9635 18.4838C60.5675 18.1721 61.1934 17.8909 61.838 17.6417C62.5918 17.3941 63.3689 17.1985 64.1613 17.0568C64.3134 17.0493 64.4646 17.0309 64.6171 17.0327C64.6788 17.0332 64.7402 17.0423 64.8019 17.044C65.096 17.1044 65.508 17.1913 65.9192 17.2973C65.9974 17.3341 66.0757 17.37 66.1519 17.4098C66.3393 17.5552 66.5668 17.7393 66.7865 17.937C66.9761 18.1727 67.1481 18.418 67.3013 18.6713C67.8582 19.9314 68.3173 21.2198 68.6759 22.5286C70.0113 27.0255 69.7371 30.2639 68.7955 34.0675C65.0697 48.4819 55.1029 59.3932 44.8105 72.91C43.653 74.3496 42.4721 75.7761 41.2677 77.1894C45.3483 73.991 49.2345 70.626 52.9866 67.1621C61.0076 59.7991 69.226 52.3731 74.3327 43.2838C76.935 38.8012 79.1575 34.0778 79.7967 29.0959C80.3395 24.4135 79.729 19.6883 78.0023 15.2083Z" fill="black"/>
</svg>
