<svg width="534" height="542" viewBox="0 0 534 542" fill="none" xmlns="http://www.w3.org/2000/svg">
<g clip-path="url(#clip0_7_298)">
<path d="M267.07 359.72C366.404 359.72 446.93 279.194 446.93 179.86C446.93 80.5261 366.404 0 267.07 0C167.736 0 87.21 80.5261 87.21 179.86C87.21 279.194 167.736 359.72 267.07 359.72Z" fill="#FFD9CB"/>
<path d="M292.96 239.82C292.96 246.59 281.37 252.08 267.07 252.08C252.77 252.08 241.18 246.59 241.18 239.82C241.18 233.05 252.77 227.55 267.07 227.55C281.37 227.55 292.96 233 292.96 239.82Z" fill="white"/>
<path d="M193.49 162.15C203.271 162.15 211.2 154.221 211.2 144.44C211.2 134.659 203.271 126.73 193.49 126.73C183.709 126.73 175.78 134.659 175.78 144.44C175.78 154.221 183.709 162.15 193.49 162.15Z" fill="#383F4D"/>
<path d="M340.65 162.15C350.431 162.15 358.36 154.221 358.36 144.44C358.36 134.659 350.431 126.73 340.65 126.73C330.869 126.73 322.94 134.659 322.94 144.44C322.94 154.221 330.869 162.15 340.65 162.15Z" fill="#383F4D"/>
<path d="M198.94 144.43C201.95 144.43 204.39 141.99 204.39 138.98C204.39 135.97 201.95 133.53 198.94 133.53C195.93 133.53 193.49 135.97 193.49 138.98C193.49 141.99 195.93 144.43 198.94 144.43Z" fill="white"/>
<path d="M346.1 144.43C349.11 144.43 351.55 141.99 351.55 138.98C351.55 135.97 349.11 133.53 346.1 133.53C343.09 133.53 340.65 135.97 340.65 138.98C340.65 141.99 343.09 144.43 346.1 144.43Z" fill="white"/>
<path d="M373.35 106.28H309.35C305.018 106.293 300.867 108.02 297.803 111.083C294.74 114.147 293.013 118.298 293 122.63V166.23C293.013 170.562 294.74 174.713 297.803 177.776C300.867 180.84 305.018 182.567 309.35 182.58H373.35C377.682 182.567 381.833 180.84 384.897 177.776C387.96 174.713 389.687 170.562 389.7 166.23V122.63C389.687 118.298 387.96 114.147 384.897 111.083C381.833 108.02 377.682 106.293 373.35 106.28ZM376.07 155.34C376.057 159.672 374.33 163.823 371.267 166.886C368.203 169.95 364.052 171.677 359.72 171.69H322.94C318.608 171.677 314.457 169.95 311.393 166.886C308.33 163.823 306.603 159.672 306.59 155.34V133.54C306.603 129.208 308.33 125.057 311.393 121.993C314.457 118.93 318.608 117.203 322.94 117.19H359.73C364.059 117.206 368.206 118.932 371.267 121.993C374.328 125.054 376.054 129.201 376.07 133.53V155.34Z" fill="#FF5964"/>
<path d="M144.44 122.63V166.23C144.453 170.562 146.18 174.713 149.243 177.776C152.307 180.84 156.458 182.567 160.79 182.58H224.79C229.122 182.567 233.273 180.84 236.337 177.776C239.4 174.713 241.127 170.562 241.14 166.23V122.63C241.127 118.298 239.4 114.147 236.337 111.083C233.273 108.02 229.122 106.293 224.79 106.28H160.79C156.458 106.293 152.307 108.02 149.243 111.083C146.18 114.147 144.453 118.298 144.44 122.63ZM158.07 133.53C158.083 129.198 159.81 125.047 162.873 121.983C165.937 118.92 170.088 117.193 174.42 117.18H211.21C215.542 117.193 219.693 118.92 222.757 121.983C225.82 125.047 227.547 129.198 227.56 133.53V155.33C227.547 159.662 225.82 163.813 222.757 166.876C219.693 169.94 215.542 171.667 211.21 171.68H174.41C170.081 171.664 165.934 169.937 162.873 166.876C159.812 163.816 158.086 159.669 158.07 155.34V133.53Z" fill="#FF5964"/>
<path d="M290.38 149.92C283.646 145.537 275.785 143.203 267.75 143.203C259.715 143.203 251.854 145.537 245.12 149.92C241.34 152.34 236.19 152.85 233.12 150.03L229.27 146.18C226.27 143.4 227.96 136.67 233.92 132.79C243.978 126.251 255.718 122.77 267.715 122.77C279.712 122.77 291.452 126.251 301.51 132.79C307.51 136.67 309.19 143.41 306.16 146.18L302.35 150C299.32 152.84 294.17 152.34 290.38 149.92Z" fill="#FF5964"/>
<path opacity="0.2" d="M248.98 312.44C250.34 306.9 256.82 304.44 262.48 303.68C270.88 302.51 280.84 303.68 285.48 310.81" fill="#BF655B"/>
<path d="M455.36 145.8H445.3C438.673 145.8 433.3 151.172 433.3 157.8V215.56C433.3 222.187 438.673 227.56 445.3 227.56H455.36C461.987 227.56 467.36 222.187 467.36 215.56V157.8C467.36 151.172 461.987 145.8 455.36 145.8Z" fill="#FFD9CB"/>
<path d="M88.83 145.79H78.77C72.1426 145.79 66.77 151.163 66.77 157.79V215.55C66.77 222.177 72.1426 227.55 78.77 227.55H88.83C95.4574 227.55 100.83 222.177 100.83 215.55V157.79C100.83 151.163 95.4574 145.79 88.83 145.79Z" fill="#FFD9CB"/>
<path d="M213.76 440.249L320.21 440.12V344.74C320.197 340.408 318.47 336.257 315.407 333.193C312.343 330.13 308.192 328.403 303.86 328.39H230.28C225.948 328.403 221.797 330.13 218.733 333.193C215.67 336.257 213.943 340.408 213.93 344.74V440.12" fill="#FFD9CB"/>
<path opacity="0.2" d="M205.81 43.0702C217.81 40.3802 229.4 49.4302 241.68 49.7102C251.27 49.9302 260.18 44.7902 269.68 43.5902C279.18 42.3902 288.46 45.0902 297.83 46.4502C307.2 47.8102 317.65 47.5202 324.93 41.4502" fill="#BF655B"/>
<path opacity="0.2" d="M205.81 59.4198C217.81 56.7298 229.4 65.7798 241.68 66.0598C251.27 66.2798 260.18 61.1398 269.68 59.9398C279.18 58.7398 288.46 61.4398 297.83 62.7998C307.2 64.1598 317.65 63.8698 324.93 57.7998" fill="#BF655B"/>
<path d="M213.93 418.12H194.16C87.37 418.12 0 505.49 0 612.28V675.65C0.013188 679.982 1.74001 684.133 4.80338 687.197C7.86674 690.26 12.0178 691.987 16.35 692H517.79C522.122 691.987 526.273 690.26 529.337 687.197C532.4 684.133 534.127 679.982 534.14 675.65V612.28C534.14 505.49 446.77 418.12 339.98 418.12H320.21C283.184 425.307 248.324 425.49 215.76 418.249" fill="#0E9594"/>
</g>
<defs>
<clipPath id="clip0_7_298">
<rect width="534.14" height="692" fill="white"/>
</clipPath>
</defs>
</svg>
