<svg width="320" height="331" viewBox="0 0 320 331" fill="none" xmlns="http://www.w3.org/2000/svg">
<g clip-path="url(#clip0_3_130)">
<path d="M133.11 287.558L136.605 273.887C132.4 268.328 127.128 264.086 121.249 261.53C126.993 272.961 121.427 287.872 123.746 300.93C124.496 304.996 125.997 308.808 128.14 312.082C130.283 315.356 133.011 318.009 136.124 319.844L141.427 327.737C144.208 321.903 145.902 315.414 146.393 308.717C146.885 302.02 146.161 295.275 144.273 288.946C143.185 285.409 141.73 282.049 139.942 278.948C136.791 283.399 133.11 287.558 133.11 287.558Z" fill="#F2F2F2"/>
<path d="M113.892 289.305L111.944 275.197C106.116 272.474 99.8229 271.501 93.6108 272.362C102.997 279.516 103.552 295.844 110.477 306.289C112.657 309.527 115.417 312.134 118.55 313.917C121.683 315.7 125.111 316.613 128.578 316.588L136.256 320.812C136.578 314.1 135.685 307.385 133.638 301.128C131.591 294.871 128.439 289.221 124.399 284.568C122.111 281.984 119.562 279.757 116.811 277.939C115.642 283.61 113.892 289.305 113.892 289.305Z" fill="#F2F2F2"/>
<path d="M228.282 324.229L222.898 324.228L220.337 299.288L228.283 299.289L228.282 324.229Z" fill="#FFB6B6"/>
<path d="M229.655 330.497L212.296 330.496V330.232C212.296 328.08 213.008 326.016 214.275 324.494C215.542 322.972 217.261 322.117 219.053 322.117H219.053L222.224 319.228L228.14 322.118L229.655 322.118L229.655 330.497Z" fill="#2F2E41"/>
<path d="M315.247 300.644L311.576 305.374L294.639 290.62L300.057 283.639L315.247 300.644Z" fill="#FFB6B6"/>
<path d="M320 303.711L308.164 318.962L308.004 318.783C306.693 317.315 305.921 315.282 305.858 313.132C305.795 310.981 306.446 308.888 307.668 307.313L307.668 307.313L308.07 302.557L313.864 299.329L314.897 297.998L320 303.711Z" fill="#2F2E41"/>
<path d="M307.281 286.627L301.59 300.921L266.648 273.134L261.565 264.816L244.897 237.54L238.122 250.452L233.408 263.95C231.872 265.154 230.577 266.752 229.617 268.63C228.658 270.508 228.058 272.618 227.86 274.809L227.644 277.198L230.623 309.363L219.301 313.539L212.798 270.33L214.924 260.967L217.112 247.824L228.131 206.292H257.617L274.529 249.528L275.765 258.338L280.561 264.948L307.281 286.627Z" fill="#2F2E41"/>
<path d="M246.003 138.342L250.966 142.881L256.953 145.091C256.953 145.091 259.427 186.9 261.657 189.579C263.887 192.257 261.876 192.329 262.324 195.808C262.772 199.287 263.861 206.419 263.861 206.419C248.81 215.988 235.834 216.245 225.41 205.047C225.277 204.354 225.345 203.628 225.603 202.988C225.86 202.348 226.292 201.832 226.827 201.528C228.767 200.291 225.039 194.521 226.624 193.556C228.209 192.592 225.98 184.222 225.98 184.222L227.442 166.76L226.287 163.969L229.107 146.889L234.001 144.742L235.955 139.086L246.003 138.342Z" fill="#3F3D56"/>
<path d="M249.112 212.652C249.09 211.897 249.206 211.145 249.452 210.449C249.698 209.754 250.067 209.132 250.535 208.626C251.003 208.121 251.557 207.745 252.159 207.525C252.76 207.305 253.395 207.246 254.018 207.352L261.013 191.021L264.911 199.338L257.67 213.571C257.452 214.816 256.861 215.921 256.01 216.678C255.159 217.435 254.106 217.79 253.051 217.677C251.996 217.563 251.013 216.989 250.287 216.063C249.561 215.137 249.143 213.923 249.112 212.652H249.112Z" fill="#FFB6B6"/>
<path d="M260.893 208.657L275.897 180.726L275.848 180.598C275.791 180.451 272.393 171.637 269.101 163.565C268.594 162.322 268.09 161.096 267.6 159.922C267.389 159.416 267.181 158.92 266.976 158.435C265.593 155.16 264.385 152.454 263.664 151.169C262.069 148.263 259.694 146.099 256.934 145.037L256.865 145.016L256.798 145.049C255.448 145.733 254.333 146.949 253.636 148.497C252.938 150.045 252.701 151.833 252.963 153.564C254.264 161.917 257.164 169.791 261.434 176.567L263.866 180.418L255.413 202.49L260.893 208.657Z" fill="#3F3D56"/>
<path d="M209.298 101.596C209.712 102.166 210.016 102.838 210.189 103.564C210.363 104.29 210.402 105.053 210.304 105.799C210.205 106.546 209.972 107.257 209.62 107.883C209.268 108.509 208.806 109.035 208.266 109.423L211.394 127.4L204.006 123.887L202.168 107.354C201.685 106.223 201.564 104.917 201.829 103.685C202.093 102.454 202.725 101.381 203.604 100.672C204.483 99.9619 205.548 99.664 206.597 99.8345C207.647 100.005 208.608 100.632 209.298 101.596H209.298Z" fill="#FFB6B6"/>
<path d="M202.241 113.609L205.229 146.654L205.335 146.717C205.422 146.768 209.207 148.998 213.853 151.653C214.637 152.101 214.525 154.042 215.344 154.506C215.908 154.825 217.398 153.666 217.968 153.986C223.047 156.839 228.182 159.612 230.228 160.364C232.991 161.415 235.97 161.3 238.671 160.037L238.736 160.001L238.77 159.926C239.461 158.373 239.69 156.584 239.42 154.854C239.15 153.125 238.397 151.557 237.286 150.41C231.896 144.905 225.514 140.981 218.645 138.947L214.737 137.795L209.731 114.255L202.241 113.609Z" fill="#3F3D56"/>
<path d="M240.711 136.47C246.133 136.47 250.529 131.19 250.529 124.678C250.529 118.165 246.133 112.885 240.711 112.885C235.288 112.885 230.892 118.165 230.892 124.678C230.892 131.19 235.288 136.47 240.711 136.47Z" fill="#FFB6B6"/>
<path d="M230.963 116.775C231.77 113.954 235.789 111.997 242.306 111.725C248.822 111.453 250.474 120.676 250.474 120.676C254.824 124.914 245.829 136.261 245.394 135.852L245.59 133.72C245.914 130.189 247.291 127.434 245.54 123.754L243.858 123.777C241.687 124.279 239.516 124.78 237.344 125.282L239.915 122.563L239.843 122.429C238.749 123.113 237.559 123.546 236.334 123.708C234.952 123.806 233.441 123.145 232.78 121.685C232.603 121.284 232.495 120.844 232.462 120.392C230.599 121.286 229.747 124.045 229.747 124.045C229.747 124.045 230.155 119.597 230.963 116.775Z" fill="#2F2E41"/>
<path d="M39.5575 117.483C39.4243 117.28 39.2808 117.087 39.1279 116.905C39.1653 116.844 39.2027 116.777 39.24 116.715L39.5575 117.483Z" fill="#2F2E41"/>
<path d="M41.4668 164.911C39.8608 168.337 36.6533 170.249 33.4739 171.186C29.9027 172.309 26.1421 172.222 22.6097 170.933C22.1615 170.759 21.7133 170.558 21.2791 170.333C21.4879 169.667 21.6533 168.983 21.774 168.287C21.9365 167.344 22.0179 166.384 22.0168 165.421C21.663 166.25 21.2047 167.009 20.6582 167.67C20.2365 168.202 19.7577 168.664 19.2342 169.044C17.6106 167.86 16.2047 166.292 15.1024 164.434C15.1724 164.227 15.2424 164.019 15.3078 163.812C15.6468 162.728 15.9153 161.614 16.1108 160.481C16.3761 158.948 16.5091 157.387 16.5077 155.821C15.932 157.17 15.1854 158.403 14.2946 159.477C14.0276 159.82 13.7439 160.144 13.445 160.447C12.9821 158.759 12.8031 156.977 12.9185 155.205C13.0339 153.432 13.4414 151.705 14.1172 150.124C15.9661 146.019 19.5517 143.58 22.7451 140.928C25.9432 138.275 29.1413 134.686 29.4121 130.027C29.5942 126.881 28.3803 123.729 28.8658 120.634C29.0701 119.329 29.5686 118.116 30.3071 117.127C31.0457 116.139 31.9959 115.413 33.0544 115.028C34.1128 114.644 35.2388 114.615 36.3097 114.946C37.3806 115.277 38.3554 115.955 39.1278 116.905C37.3163 119.989 35.5142 123.18 34.7812 126.847C34.0342 130.582 34.6458 134.961 37.0969 137.434C37.9373 138.286 38.9691 138.892 39.618 139.957C40.4817 141.371 40.4864 143.255 40.6265 144.993C40.9066 148.374 41.8263 151.627 42.3212 154.974C42.8208 158.316 42.8488 161.944 41.4668 164.911Z" fill="#2F2E41"/>
<path d="M8.5437 303.968L12.8048 307.922L27.5311 290.064L21.2421 284.228L8.5437 303.968Z" fill="#A0616A"/>
<path d="M8.72494 300.104L15.7712 305.873L13.5413 309.339L16.5277 320.594C16.6753 321.15 16.671 321.747 16.5156 322.3C16.3602 322.853 16.0617 323.332 15.6637 323.666C15.2658 324.001 14.7892 324.174 14.3036 324.16C13.818 324.146 13.3487 323.946 12.9644 323.59L4.94536 316.148L5.76884 311.436L3.02348 314.364L0 311.558L8.72494 300.104Z" fill="#2F2E41"/>
<path d="M30.1616 127.445C30.161 129.445 30.5691 131.414 31.35 133.18C32.1309 134.946 33.2609 136.454 34.6406 137.573C36.0203 138.692 37.6076 139.387 39.2632 139.598C40.9188 139.808 42.5921 139.527 44.1361 138.779C45.6801 138.031 47.0476 136.839 48.1187 135.309C49.1897 133.778 49.9316 131.955 50.279 129.999C50.6265 128.044 50.5689 126.015 50.1114 124.093C49.654 122.17 48.8105 120.412 47.6552 118.972L47.6064 118.914C47.525 118.811 47.4436 118.709 47.3582 118.611C47.3576 118.611 47.3571 118.611 47.3566 118.61C47.3561 118.61 47.3557 118.61 47.3553 118.609C47.3549 118.609 47.3546 118.608 47.3544 118.608C47.3542 118.607 47.3541 118.607 47.3541 118.606C47.2484 118.489 47.1426 118.371 47.0327 118.259C45.2427 116.373 42.7268 114.326 40.1597 114.326C34.5414 114.326 30.1616 120.697 30.1616 127.445Z" fill="#2F2E41"/>
<path d="M88.133 121.172C88.1817 121.824 88.1108 122.48 87.9254 123.095C87.74 123.71 87.4446 124.269 87.06 124.732C86.6754 125.195 86.2108 125.551 85.6992 125.776C85.1875 126 84.6412 126.087 84.0986 126.03L58.9134 153.341L54.5793 145.12L80.6984 120.859C80.8383 119.77 81.3058 118.781 82.0123 118.079C82.7188 117.377 83.6152 117.011 84.5316 117.049C85.448 117.088 86.3208 117.529 86.9845 118.289C87.6483 119.049 88.0569 120.074 88.133 121.172V121.172Z" fill="#A0616A"/>
<path d="M48.1496 161.585C48.1496 161.585 49.0867 163.664 52.2876 160.454C54.8502 157.885 67.1272 146.729 69.7721 142.158C70.3761 142.445 71.0425 142.483 71.6663 142.266C72.2902 142.048 72.836 141.587 73.2179 140.956L65.971 133.333C63.8028 133.633 63.8493 135.383 64.0751 136.376L58.6086 139.351L44.4927 150.186L47.4501 160.097L48.1496 161.585Z" fill="#0E9594"/>
<path d="M34.4746 180.736L33.9468 183.756L33.4985 194.892L53.2323 196.195L52.6195 179.066L50.7067 175.292L34.4746 180.736Z" fill="#A0616A"/>
<path d="M42.8379 140.515C47.5481 140.515 51.3664 135.929 51.3664 130.272C51.3664 124.614 47.5481 120.028 42.8379 120.028C38.1277 120.028 34.3093 124.614 34.3093 130.272C34.3093 135.929 38.1277 140.515 42.8379 140.515Z" fill="#A0616A"/>
<path d="M27.6965 168.054L27.644 159.539C27.6428 156.475 28.5061 153.502 30.0929 151.103C31.6797 148.704 33.8964 147.022 36.3815 146.331L36.4137 146.322L38.1001 143.593L44.9517 144.416L46.2075 147.499L51.1723 151.049L53.0838 158.43C53.9129 159.093 54.6195 159.955 55.1597 160.96C55.6999 161.966 56.0622 163.094 56.224 164.275C56.873 169.254 53.9705 174.236 53.6253 174.807L52.7358 180.824L33.3845 184.925L33.2274 184.949L27.6965 168.054Z" fill="#0E9594"/>
<path d="M53.2743 128.445C52.2795 129.202 51.2473 129.886 50.1835 130.492C49.1038 131.115 47.9745 131.605 46.8127 131.956C46.4803 131.08 46.0735 130.247 45.5988 129.472C45.721 130.391 45.7241 131.327 45.6082 132.247C43.6825 132.62 41.7102 132.426 39.8609 131.681L38.2549 128.445L38.1335 132.057C36.8029 132.348 35.4769 132.623 34.1464 132.909C34.067 132.92 33.9876 132.943 33.9129 132.959C33.0865 128.485 34.2584 123.556 36.8636 120.573C38.157 119.107 39.7705 118.113 41.5162 117.706C43.2619 117.299 45.0679 117.496 46.724 118.273C46.9341 118.374 47.1488 118.487 47.3543 118.604C47.3543 118.605 47.3544 118.606 47.3546 118.606C47.3548 118.607 47.3552 118.608 47.3556 118.608C47.356 118.609 47.3566 118.609 47.3571 118.61C47.3577 118.61 47.3583 118.61 47.3589 118.61C47.4803 118.683 47.583 118.857 47.7184 118.84C53.545 118.06 53.7318 123.488 53.2743 128.445Z" fill="#2F2E41"/>
<path d="M39.0862 290.76L43.3539 294.703L58.0504 276.809L51.7518 270.989L39.0862 290.76Z" fill="#A0616A"/>
<path d="M39.6481 287.253L46.704 293.004L44.48 296.475L47.4852 307.723C47.6337 308.279 47.6305 308.877 47.476 309.43C47.3215 309.983 47.0238 310.462 46.6264 310.798C46.2291 311.133 45.7528 311.307 45.2671 311.295C44.7815 311.282 44.3119 311.084 43.9269 310.728L35.8954 303.305L36.711 298.592L33.9706 301.526L30.9424 298.728L39.6481 287.253Z" fill="#2F2E41"/>
<path d="M25.2379 268.921L25.2377 268.854L27.2603 264.668L25.1949 259.218L25.133 245.218L25.4678 243.116C25.9181 240.29 25.787 237.374 25.0861 234.622L25.0484 226.1C24.9758 223.965 27.7293 222.087 27.0872 220.308C21.0178 203.485 33.285 190.652 33.3679 190.549L33.6186 190.236L34.9787 191.473L36.2733 191.475L53.7431 195.298L53.8692 195.581C54.5563 197.129 55.8824 202.464 55.9611 204.879C56.8318 206.089 66.7493 219.873 67.6309 220.831C73.5885 227.305 76.9995 238.021 78.5024 243.832C78.8757 245.269 78.9509 246.793 78.7216 248.272C78.4923 249.751 77.9653 251.14 77.1866 252.319L54.6329 281.99L48.5635 275.261L60.7671 248.552L59.8871 245.842C58.3081 245.492 56.8792 244.495 55.844 243.021L53.3729 239.498C52.6887 238.525 52.2539 237.335 52.1212 236.072L50.6226 235.855L45.2546 229.086L41.5304 269.594L40.5179 272.794L22.8853 297.691L15.4153 292.083L25.2379 268.921Z" fill="#2F2E41"/>
<path d="M22.5449 94.9852C22.2062 95.4974 21.965 96.0926 21.8385 96.7289C21.712 97.3651 21.7032 98.027 21.8126 98.6678C21.9221 99.3086 22.1472 99.9127 22.4722 100.438C22.7971 100.963 23.2139 101.396 23.6932 101.706L18.0864 121.643L22.6647 142.77L30.0472 138.761L25.4916 122.826L28.8999 99.6301C29.2809 98.6283 29.3428 97.4935 29.0738 96.4406C28.8047 95.3877 28.2235 94.49 27.4401 93.9174C26.6568 93.3449 25.7258 93.1373 24.8236 93.3341C23.9214 93.5309 23.1106 94.1184 22.5449 94.9852Z" fill="#A0616A"/>
<path d="M29.3026 160.177C29.3026 160.177 27.5687 161.296 26.3628 156.501C25.3974 152.663 18.8274 131.824 18.709 126.259C18.0729 126.101 17.4988 125.693 17.0771 125.099C16.6555 124.506 16.4101 123.76 16.3799 122.981L25.9221 121.395C27.5965 123.077 26.7573 124.508 26.1142 125.188L29.3642 131.8L36.1572 149.65L30.5679 159.396L29.3026 160.177Z" fill="#0E9594"/>
<path d="M34.1443 132.908C35.1242 129.359 36.8813 126.192 39.2313 123.739C41.5813 121.286 44.4375 119.638 47.5004 118.968C47.5126 118.963 47.5533 118.943 47.6062 118.914C47.6387 118.889 47.6794 118.865 47.7201 118.841C47.5981 118.758 47.4801 118.684 47.358 118.611C47.3575 118.611 47.357 118.611 47.3565 118.611C47.356 118.61 47.3555 118.61 47.3551 118.609C47.3548 118.609 47.3545 118.608 47.3543 118.608C47.3541 118.607 47.354 118.607 47.354 118.606C47.2482 118.489 47.1424 118.371 47.0326 118.259L46.7234 118.274C46.7234 118.274 35.857 116.207 34.1443 132.908Z" fill="#FD6584"/>
<path d="M174.36 247.055C175.546 244.914 174.844 241.849 172.792 240.209C170.74 238.57 168.115 238.976 166.929 241.117C165.743 243.258 166.445 246.323 168.497 247.962C170.549 249.602 173.174 249.195 174.36 247.055Z" fill="#F2F2F2"/>
<path d="M150.286 167.145C151.471 165.004 150.77 161.94 148.718 160.3C146.666 158.66 144.041 159.067 142.855 161.208C141.669 163.349 142.371 166.414 144.423 168.053C146.475 169.693 149.1 169.286 150.286 167.145Z" fill="#F2F2F2"/>
<path d="M250.959 290.163C252.145 288.022 251.443 284.958 249.391 283.318C247.339 281.679 244.714 282.085 243.528 284.226C242.343 286.367 243.044 289.432 245.096 291.071C247.148 292.711 249.773 292.304 250.959 290.163Z" fill="#F2F2F2"/>
<path d="M47.4237 33.0868C48.6096 30.9458 47.9077 27.881 45.8558 26.2415C43.804 24.6019 41.1792 25.0083 39.9933 27.1493C38.8073 29.2903 39.5093 32.355 41.5611 33.9946C43.613 35.6342 46.2377 35.2277 47.4237 33.0868Z" fill="#F2F2F2"/>
<path d="M142.407 7.85236C143.593 5.71138 142.891 2.64665 140.839 1.00707C138.787 -0.632515 136.162 -0.226064 134.976 1.91491C133.791 4.05588 134.492 7.12065 136.544 8.76023C138.596 10.3998 141.221 9.99333 142.407 7.85236Z" fill="#F2F2F2"/>
<path d="M97.4537 219.567C98.6397 217.426 97.9377 214.362 95.8859 212.722C93.834 211.082 91.2093 211.489 90.0233 213.63C88.8374 215.771 89.5393 218.836 91.5912 220.475C93.643 222.115 96.2678 221.708 97.4537 219.567Z" fill="#E6E6E6"/>
<path d="M293.383 331H8.74256C8.6046 330.999 8.47243 330.933 8.37501 330.816C8.2776 330.699 8.2229 330.54 8.2229 330.374C8.2229 330.208 8.2776 330.049 8.37501 329.932C8.47243 329.815 8.6046 329.749 8.74256 329.748H293.383C293.521 329.748 293.654 329.814 293.752 329.931C293.849 330.049 293.904 330.208 293.904 330.374C293.904 330.54 293.849 330.699 293.752 330.817C293.654 330.934 293.521 331 293.383 331Z" fill="#CCCCCC"/>
<path d="M61.7209 123.103C59.3266 123.095 57.0188 122.027 55.2387 120.104C53.4586 118.181 52.331 115.537 52.0716 112.678L46.5148 50.6923C46.2417 47.6147 46.9963 44.5327 48.6129 42.1224C50.2295 39.7122 52.5762 38.1706 55.138 37.8358L220.135 16.498C222.697 16.1699 225.263 17.0761 227.27 19.0177C229.277 20.9594 230.561 23.7778 230.839 26.8548L236.396 88.8403C236.669 91.9181 235.915 95.0002 234.298 97.4105C232.681 99.8209 230.335 101.363 227.773 101.697L227.749 101.436L227.773 101.697L62.7761 123.035C62.4256 123.081 62.0734 123.103 61.7209 123.103Z" fill="#E6E6E6"/>
<path d="M218.317 19.3755C218.007 19.3756 217.698 19.3957 217.389 19.4356L58.3415 40.0041C57.2294 40.1479 56.1518 40.5534 55.1701 41.1974C54.1885 41.8415 53.3221 42.7114 52.6204 43.7576C51.9187 44.8038 51.3954 46.0057 51.0805 47.2948C50.7655 48.5839 50.665 49.9349 50.7848 51.2706L53.5944 82.6112C54.0486 87.6778 55.3292 92.5873 57.3631 97.0595C59.397 101.532 62.1444 105.479 65.4485 108.676C68.7525 111.873 72.5485 114.257 76.6196 115.692C80.6907 117.126 84.9573 117.584 89.1757 117.039L201.013 102.575C205.218 102.032 209.294 100.498 213.006 98.0627C216.718 95.6272 219.994 92.3374 222.648 88.3811C225.302 84.4248 227.28 79.8795 228.472 75.0047C229.663 70.1299 230.043 65.021 229.59 59.9698L226.77 28.5117C226.545 26.0059 225.558 23.6879 223.998 22.002C222.439 20.3161 220.416 19.3808 218.317 19.3755V19.3755Z" fill="white"/>
<path d="M184.824 51.9918L95.9303 63.4879C95.6762 63.5212 95.419 63.494 95.1736 63.4078C94.9282 63.3216 94.6993 63.1782 94.5001 62.9857C94.3009 62.7932 94.1352 62.5554 94.0126 62.286C93.8899 62.0165 93.8127 61.7207 93.7854 61.4153C93.758 61.11 93.781 60.8012 93.8531 60.5066C93.9251 60.2119 94.0449 59.9372 94.2054 59.6982C94.3659 59.4592 94.5641 59.2606 94.7886 59.1136C95.0131 58.9667 95.2596 58.8743 95.5138 58.8418L184.408 47.3458C184.662 47.3125 184.919 47.3397 185.164 47.4259C185.41 47.5121 185.639 47.6555 185.838 47.848C186.037 48.0405 186.203 48.2783 186.325 48.5477C186.448 48.8172 186.525 49.113 186.553 49.4184C186.58 49.7237 186.557 50.0325 186.485 50.3271C186.413 50.6218 186.293 50.8964 186.133 51.1355C185.972 51.3745 185.774 51.5731 185.549 51.7201C185.325 51.867 185.078 51.9594 184.824 51.9918Z" fill="#0E9594"/>
<path d="M186.102 66.2513L97.2085 77.7473C96.6955 77.8137 96.1816 77.6325 95.7799 77.2438C95.3781 76.8551 95.1214 76.2905 95.0661 75.6744C95.0109 75.0583 95.1617 74.4411 95.4854 73.9586C95.809 73.476 96.279 73.1676 96.792 73.1013L185.686 61.6052C186.199 61.5389 186.713 61.72 187.115 62.1088C187.516 62.4975 187.773 63.062 187.828 63.6781C187.884 64.2942 187.733 64.9115 187.409 65.394C187.085 65.8766 186.615 66.185 186.102 66.2513Z" fill="#0E9594"/>
<path d="M108.846 90.6661L98.4868 92.0059C97.9739 92.0722 97.46 91.8911 97.0582 91.5023C96.6564 91.1136 96.3997 90.5491 96.3444 89.933C96.2892 89.3168 96.44 88.6996 96.7637 88.2171C97.0873 87.7345 97.5573 87.4261 98.0703 87.3598L108.43 86.0201C108.684 85.9868 108.941 86.014 109.186 86.1002C109.432 86.1864 109.661 86.3298 109.86 86.5223C110.059 86.7148 110.225 86.9526 110.347 87.222C110.47 87.4915 110.547 87.7873 110.575 88.0927C110.602 88.398 110.579 88.7068 110.507 89.0014C110.435 89.2961 110.315 89.5708 110.155 89.8098C109.994 90.0488 109.796 90.2474 109.571 90.3944C109.347 90.5413 109.1 90.6337 108.846 90.6661Z" fill="#0E9594"/>
<path d="M58.2234 53.3075C60.1573 53.3075 61.725 51.4245 61.725 49.1018C61.725 46.779 60.1573 44.896 58.2234 44.896C56.2894 44.896 54.7217 46.779 54.7217 49.1018C54.7217 51.4245 56.2894 53.3075 58.2234 53.3075Z" fill="#3F3D56"/>
<path d="M214.924 32.2792C216.857 32.2792 218.425 30.3962 218.425 28.0734C218.425 25.7507 216.857 23.8677 214.924 23.8677C212.99 23.8677 211.422 25.7507 211.422 28.0734C211.422 30.3962 212.99 32.2792 214.924 32.2792Z" fill="#3F3D56"/>
<path d="M167.582 118.621C167.26 118.282 167.006 117.86 166.836 117.388C166.667 116.916 166.587 116.404 166.603 115.89C166.779 109.781 165.942 103.691 164.139 97.9749C163.986 97.4944 163.925 96.979 163.958 96.4662C163.992 95.9534 164.121 95.4561 164.335 95.0104C164.539 94.5821 164.82 94.2129 165.156 93.9286C165.493 93.6444 165.877 93.452 166.282 93.365C170.352 90.4151 174.524 89.5869 178.686 90.904C179.357 90.7854 180.041 90.9579 180.616 91.3906C181.19 91.8234 181.618 92.4879 181.821 93.2651C183.506 99.8344 184.443 106.647 184.607 113.518C184.623 114.343 184.39 115.146 183.952 115.781C183.515 116.416 182.901 116.84 182.223 116.975L169.909 119.419C169.496 119.502 169.073 119.473 168.671 119.335C168.268 119.197 167.896 118.953 167.582 118.621Z" fill="#0E9594"/>
<path d="M168.676 100.823L179.041 98.7661C179.126 98.7495 179.208 98.7128 179.281 98.6581C179.354 98.6035 179.418 98.532 179.468 98.4478C179.519 98.3636 179.555 98.2682 179.575 98.1672C179.594 98.0662 179.597 97.9616 179.583 97.8593C179.569 97.7569 179.538 97.659 179.493 97.5709C179.447 97.4829 179.387 97.4065 179.317 97.3462C179.247 97.2859 179.167 97.2429 179.083 97.2195C178.999 97.1961 178.912 97.1929 178.827 97.2101L168.462 99.2667C168.291 99.3012 168.138 99.416 168.036 99.5859C167.935 99.7558 167.895 99.9669 167.923 100.173C167.951 100.379 168.046 100.563 168.188 100.685C168.329 100.807 168.505 100.856 168.676 100.823Z" fill="white"/>
<path d="M169.532 107.047L179.897 104.99C180.069 104.956 180.222 104.842 180.323 104.672C180.425 104.502 180.466 104.29 180.437 104.084C180.409 103.878 180.314 103.693 180.172 103.571C180.031 103.45 179.854 103.4 179.683 103.434L169.318 105.491C169.233 105.508 169.151 105.544 169.078 105.599C169.004 105.654 168.941 105.725 168.89 105.809C168.84 105.894 168.804 105.989 168.784 106.09C168.765 106.191 168.762 106.296 168.776 106.398C168.79 106.5 168.821 106.598 168.866 106.686C168.912 106.774 168.972 106.851 169.042 106.911C169.112 106.971 169.192 107.014 169.276 107.038C169.36 107.061 169.447 107.064 169.532 107.047Z" fill="white"/>
<path d="M170.388 113.271L180.753 111.215C180.925 111.18 181.078 111.066 181.18 110.896C181.281 110.726 181.322 110.514 181.294 110.308C181.265 110.102 181.17 109.917 181.028 109.795C180.887 109.674 180.711 109.624 180.539 109.658L170.174 111.715C170.089 111.732 170.008 111.769 169.935 111.824C169.861 111.878 169.798 111.95 169.748 112.034C169.697 112.118 169.661 112.213 169.642 112.314C169.622 112.415 169.619 112.519 169.634 112.622C169.648 112.724 169.678 112.822 169.724 112.91C169.769 112.998 169.829 113.074 169.899 113.134C169.969 113.194 170.048 113.238 170.132 113.261C170.216 113.285 170.303 113.288 170.388 113.271Z" fill="white"/>
</g>
<defs>
<clipPath id="clip0_3_130">
<rect width="320" height="331" fill="white"/>
</clipPath>
</defs>
</svg>
